<svg width="20" height="20" viewBox="0 0 20 20" fill="none" xmlns="http://www.w3.org/2000/svg">
<path d="M3.89705 4.05428L3.96967 3.97016C4.23594 3.70389 4.6526 3.67969 4.94621 3.89754L5.03033 3.97016L10 8.93949L14.9697 3.97016C15.2359 3.70389 15.6526 3.67969 15.9462 3.89754L16.0303 3.97016C16.2966 4.23642 16.3208 4.65309 16.1029 4.9467L16.0303 5.03082L11.061 10.0005L16.0303 14.9702C16.2966 15.2364 16.3208 15.6531 16.1029 15.9467L16.0303 16.0308C15.7641 16.2971 15.3474 16.3213 15.0538 16.1034L14.9697 16.0308L10 11.0615L5.03033 16.0308C4.76406 16.2971 4.3474 16.3213 4.05379 16.1034L3.96967 16.0308C3.7034 15.7646 3.6792 15.3479 3.89705 15.0543L3.96967 14.9702L8.939 10.0005L3.96967 5.03082C3.7034 4.76455 3.6792 4.34789 3.89705 4.05428L3.96967 3.97016L3.89705 4.05428Z" fill="black" fill-opacity="0.6063"/>
</svg>
