<svg width="20" height="20" viewBox="0 0 20 20" fill="none" xmlns="http://www.w3.org/2000/svg">
<path d="M8.5 3.00049C11.5376 3.00049 14 5.46292 14 8.50049C14 9.74881 13.5841 10.9 12.8834 11.8231L17.0303 15.9702C17.3232 16.2631 17.3232 16.7379 17.0303 17.0308C16.7641 17.2971 16.3474 17.3213 16.0538 17.1034L15.9697 17.0308L11.8226 12.8838C10.8995 13.5846 9.74832 14.0005 8.5 14.0005C5.46243 14.0005 3 11.5381 3 8.50049C3 5.46292 5.46243 3.00049 8.5 3.00049ZM8.5 4.50049C6.29086 4.50049 4.5 6.29135 4.5 8.50049C4.5 10.7096 6.29086 12.5005 8.5 12.5005C10.7091 12.5005 12.5 10.7096 12.5 8.50049C12.5 6.29135 10.7091 4.50049 8.5 4.50049Z" fill="black" fill-opacity="0.6063"/>
</svg>
